<svg style="width:0; height:0; visibility: hidden;" xmlns="http://www.w3.org/2000/svg">
	<symbol id="svg-youtube" viewBox="0 0 25 30">
		<g>
			
				<path fill-rule="evenodd" clip-rule="evenodd"
					d="M20.1904 11.3939H18.6105V10.4723C18.0115 11.164 17.5038 11.5134 16.9503 11.5134C16.4647 11.5134 16.1275 11.2826 15.9586 10.8655C15.856 10.612 15.7832 10.2161 15.7832 9.63456V2.93225H17.3632V9.21567V9.80212C17.4 10.0373 17.4991 10.1232 17.7 10.1232C18.0024 10.1232 18.276 9.85842 18.6105 9.38322V2.93225H20.1904V11.3939Z"
					fill="currentColor" />
				<path fill-rule="evenodd" clip-rule="evenodd"
					d="M13.0391 8.88044C13.1222 9.71823 12.8643 10.1339 12.3737 10.1339C11.8832 10.1339 11.6255 9.71823 11.7086 8.88044V5.52929C11.6255 4.6915 11.8832 4.29883 12.3739 4.29883C12.8645 4.29883 13.1231 4.6915 13.0399 5.52929L13.0391 8.88044ZM14.619 5.69685C14.619 4.79254 14.4388 4.11359 14.1201 3.68615C13.6992 3.10741 13.0391 2.87048 12.3739 2.87048C11.6209 2.87048 11.0479 3.10741 10.6276 3.68615C10.3039 4.11359 10.1302 4.79991 10.1302 5.70422L10.1287 8.71289C10.1287 9.612 10.2831 10.2333 10.6069 10.6566C11.0272 11.2336 11.7086 11.5392 12.3739 11.5392C13.0391 11.5392 13.7325 11.2336 14.1534 10.6566C14.472 10.2333 14.619 9.612 14.619 8.71289V5.69685Z"
					fill="currentColor" />
				<mask id="mask0_2_292" style="mask-type:luminance" maskUnits="userSpaceOnUse" x="4"
					y="0" width="7" height="12">
					<path fill-rule="evenodd" clip-rule="evenodd"
						d="M10.4613 0.0837402H4.64044L4.64044 11.3939H10.4613V0.0837402Z"
						fill="white" />
				</mask>
				<g mask="url(#mask0_2_292)">
					<path fill-rule="evenodd" clip-rule="evenodd"
						d="M8.38243 6.78605V11.3939H6.71932V6.78605C6.71932 6.78605 4.99593 1.13676 4.64044 0.0837402H6.3867L7.55378 4.49679L8.71505 0.0837402H10.4613L8.38243 6.78605Z"
						fill="currentColor" />
				</g>
				<path fill-rule="evenodd" clip-rule="evenodd"
					d="M14.9686 19.5422C14.7208 19.5422 14.4368 19.674 14.1851 19.9244L14.1834 25.0052C14.4351 25.2588 14.7208 25.3873 14.9686 25.3873C15.4027 25.3873 15.5987 25.0663 15.5987 24.2285V20.626C15.5987 19.7882 15.4027 19.5422 14.9686 19.5422Z"
					fill="currentColor" />
				<path fill-rule="evenodd" clip-rule="evenodd"
					d="M21.1701 20.5493C21.1701 19.7749 20.9715 19.5422 20.4724 19.5422C19.9695 19.5422 19.7565 19.7558 19.7565 20.5388V21.4654L21.1701 21.4639V20.5493Z"
					fill="currentColor" />
				<mask id="mask1_2_292" style="mask-type:luminance" maskUnits="userSpaceOnUse" x="0"
					y="12" width="25" height="18">
					<path fill-rule="evenodd" clip-rule="evenodd"
						d="M0 29.9993H24.8309V12.483H0V29.9993Z" fill="white" />
				</mask>
				<g mask="url(#mask1_2_292)">
					<path fill-rule="evenodd" clip-rule="evenodd"
						d="M20.4864 25.3873C20.857 25.3873 21.073 25.1842 21.1589 24.7788C21.1729 24.6961 21.1702 24.3344 21.1702 23.7258H22.7501V23.9632C22.7501 24.452 22.7101 24.7979 22.6966 24.9497C22.6458 25.286 22.5276 25.5902 22.3445 25.8586C21.9281 26.4665 21.3103 26.7661 20.5237 26.7661C19.7362 26.7661 19.1368 26.4806 18.7014 25.9085C18.3816 25.4896 18.1766 24.8668 18.1766 23.9772V21.0449C18.1766 20.1501 18.3632 19.4585 18.683 19.035C19.1184 18.4621 19.7178 18.1589 20.4864 18.1589C21.2416 18.1589 21.841 18.4621 22.263 19.035C22.5777 19.4585 22.7527 20.1129 22.7527 21.0078L22.753 22.7205H19.7565V24.225C19.7513 24.9981 19.9696 25.3873 20.4864 25.3873ZM17.1787 24.1447C17.1787 24.919 17.1129 25.4654 17.0124 25.8203C16.8115 26.4428 16.3734 26.7661 15.774 26.7661C15.2387 26.7661 14.6902 26.4416 14.1872 25.8146L14.1851 26.6581H12.6883V15.4317H14.1851L14.1834 19.0918C14.6697 18.489 15.2201 18.1458 15.774 18.1458C16.3734 18.1458 16.7764 18.4947 16.9773 19.1217C17.0778 19.4585 17.1787 20.0006 17.1787 20.7936V24.1447ZM11.441 26.6581H9.86104V25.7365C9.26208 26.4282 8.75433 26.7775 8.20085 26.7775C7.71522 26.7775 7.37794 26.5467 7.20914 26.1297C7.10653 25.8762 7.03377 25.4802 7.03377 24.8987V18.2802H8.61371V24.4798V25.0663C8.65055 25.3014 8.74967 25.3873 8.95058 25.3873C9.25293 25.3873 9.52659 25.1226 9.86104 24.6474V18.2802H11.441V26.6581ZM5.45382 26.6581H3.79071V17.0235H2.04445V15.4335L7.28323 15.4317V17.0235H5.45382V26.6581ZM24.5829 16.2618C24.5829 16.2618 24.3403 14.5456 23.5958 13.7897C22.6516 12.7979 21.5931 12.7929 21.1078 12.735C17.6331 12.483 12.421 12.483 12.421 12.483H12.4101C12.4101 12.483 7.19775 12.483 3.72311 12.735C3.23765 12.7929 2.17958 12.7979 1.2351 13.7897C0.490616 14.5456 0.248301 16.2618 0.248301 16.2618C0.248301 16.2618 0 18.277 0 20.2925V22.1819C0 24.1972 0.248301 26.2125 0.248301 26.2125C0.248301 26.2125 0.490616 27.9287 1.2351 28.6844C2.17958 29.6765 3.42059 29.645 3.97307 29.7489C5.95957 29.9402 12.4155 29.9993 12.4155 29.9993C12.4155 29.9993 17.6331 29.9914 21.1078 29.7395C21.5931 29.6815 22.6516 29.6765 23.5958 28.6844C24.3403 27.9287 24.5829 26.2125 24.5829 26.2125C24.5829 26.2125 24.8309 24.1972 24.8309 22.1819V20.2925C24.8309 18.277 24.5829 16.2618 24.5829 16.2618Z"
						fill="currentColor" />
				</g>
			

		</g>
	</symbol>
</svg>